<svg width="594" height="341" viewBox="0 0 594 341" fill="none" xmlns="http://www.w3.org/2000/svg">
<path d="M6.05604 64.0562H53.672V83.0002H4.52004V25.1441C4.52004 17.7201 4.13604 10.9361 3.75204 2.61615H6.82404C6.44004 10.8082 6.05604 17.7201 6.05604 25.1441V64.0562Z" fill="#0A0A0A"/>
<path d="M115.228 62.2642L120.092 77.4962C114.076 81.2082 102.812 84.0242 93.852 84.0242C75.292 84.0242 64.54 73.4002 64.54 54.9682V51.7682C64.54 33.8482 74.268 24.3761 92.572 24.3761C107.676 24.3761 117.404 31.4161 117.404 42.2962V44.0882C117.404 52.2802 114.076 53.8161 92.572 55.3521L67.356 57.1441C71.068 62.7761 81.18 66.7442 93.084 66.7442C100.508 66.7442 107.164 65.3362 115.228 62.2642ZM91.164 41.2722C74.524 41.2722 65.82 44.9841 65.82 52.2802C65.82 53.5602 66.076 54.8401 66.716 55.9921L92.572 54.2001C109.98 52.9201 114.716 51.2562 114.716 47.5442C114.716 43.4482 106.012 41.2722 91.164 41.2722Z" fill="#0A0A0A"/>
<path d="M183.588 37.5602L162.724 60.0882L166.692 64.9521C171.684 70.9681 176.42 76.0882 182.052 81.9762L180.004 83.6402C175.012 77.1122 171.044 72.2482 165.796 65.8482L161.828 60.9842L140.964 83.5122L128.036 70.8401L149.412 47.8002L144.292 41.7841C139.812 36.4081 135.46 31.6721 130.468 26.4241L132.516 24.7602C136.868 30.6482 140.58 35.2561 145.188 40.8881L150.18 46.9042L170.532 24.8881L183.588 37.5602Z" fill="#0A0A0A"/>
<path d="M189.447 9.27215V7.73615C189.447 6.07215 190.087 4.15215 191.111 3.12815C192.519 1.59215 194.439 0.952148 196.999 0.952148C199.559 0.952148 201.479 1.59215 202.887 3.12815C203.911 4.15215 204.551 6.07215 204.551 7.73615V9.27215C204.551 10.9361 203.911 12.8561 202.887 13.8801C201.479 15.4162 199.559 16.0562 196.999 16.0562C194.439 16.0562 192.519 15.4162 191.111 13.8801C190.087 12.8561 189.447 10.9361 189.447 9.27215ZM197.511 47.8002V56.1202C197.511 62.6482 201.991 64.9521 210.951 64.9521C217.351 64.9521 223.239 64.3122 231.303 61.4962L235.399 78.9042C229.511 82.3602 219.655 84.0242 212.999 84.0242C203.015 84.0242 196.487 78.0082 196.487 66.6161V47.8002C196.487 41.7841 196.359 36.4081 195.719 25.4002H198.279C197.767 36.4081 197.511 41.7841 197.511 47.8002Z" fill="#0A0A0A"/>
<path d="M302.405 108.6H299.845C300.229 99.3842 300.613 89.2722 300.613 81.0802V67.6402C297.029 77.6242 286.533 84.0242 273.989 84.0242C254.149 84.0242 244.165 73.6562 244.165 56.6321V53.4322C244.165 34.2322 253.893 24.3761 272.581 24.3761C285.253 24.3761 297.029 29.7522 300.485 37.1762C300.485 33.4641 300.357 29.6241 300.101 25.4002H302.277C301.893 33.7201 301.637 40.5042 301.637 47.9282V81.0802C301.637 89.2722 302.021 99.5122 302.405 108.6ZM270.405 65.2082C289.349 65.2082 300.613 60.7282 300.613 53.4322V49.0802C298.309 45.7522 288.709 43.4482 274.373 43.4482C256.197 43.4482 245.061 47.5442 245.061 55.2242C245.061 62.0082 253.381 65.2082 270.405 65.2082Z" fill="#0A0A0A"/>
<path d="M369.853 47.9282V60.4722C369.853 67.8962 370.109 74.6802 370.493 83.0002H368.317L368.701 73.5282C365.373 78.9042 356.157 84.0242 344.125 84.0242C330.045 84.0242 321.085 76.8561 321.085 64.9521V47.9282C321.085 40.5042 320.701 33.7201 320.317 25.4002H322.877C322.493 33.5922 322.109 40.5042 322.109 47.9282V51.5122C322.109 61.4962 330.301 64.9521 345.661 64.9521C357.437 64.9521 366.013 62.6482 368.829 58.8082V47.9282C368.829 40.5042 368.445 33.7201 368.061 25.4002H370.621C370.237 33.5922 369.853 40.5042 369.853 47.9282Z" fill="#0A0A0A"/>
<path d="M438.103 62.2642L442.967 77.4962C436.951 81.2082 425.687 84.0242 416.727 84.0242C398.167 84.0242 387.415 73.4002 387.415 54.9682V51.7682C387.415 33.8482 397.143 24.3761 415.447 24.3761C430.551 24.3761 440.279 31.4161 440.279 42.2962V44.0882C440.279 52.2802 436.951 53.8161 415.447 55.3521L390.231 57.1441C393.943 62.7761 404.055 66.7442 415.959 66.7442C423.383 66.7442 430.039 65.3362 438.103 62.2642ZM414.039 41.2722C397.399 41.2722 388.695 44.9841 388.695 52.2802C388.695 53.5602 388.951 54.8401 389.591 55.9921L415.447 54.2001C432.855 52.9201 437.591 51.2562 437.591 47.5442C437.591 43.4482 428.887 41.2722 414.039 41.2722Z" fill="#0A0A0A"/>
<path d="M57.512 154.424V188.472C57.512 195.896 57.768 202.68 58.152 211H55.976C56.232 205.496 56.36 200.632 56.488 195.768C52.776 205.752 42.28 212.024 29.864 212.024C10.024 212.024 0.0400391 201.656 0.0400391 184.632V181.432C0.0400391 162.232 9.76804 152.376 28.456 152.376C41.256 152.376 53.16 157.88 56.488 165.432V154.424C56.488 147 56.104 133.816 55.72 125.496H58.28C57.896 133.688 57.512 147 57.512 154.424ZM26.28 193.208C45.224 193.208 56.488 188.728 56.488 181.432V177.08C54.184 173.752 44.584 171.448 30.248 171.448C11.816 171.448 0.936039 175.544 0.936039 183.224C0.936039 190.008 9.00004 193.208 26.28 193.208Z" fill="#0A0A0A"/>
<path d="M125.728 190.264L130.592 205.496C124.576 209.208 113.312 212.024 104.352 212.024C85.792 212.024 75.04 201.4 75.04 182.968V179.768C75.04 161.848 84.768 152.376 103.072 152.376C118.176 152.376 127.904 159.416 127.904 170.296V172.088C127.904 180.28 124.576 181.816 103.072 183.352L77.856 185.144C81.568 190.776 91.68 194.744 103.584 194.744C111.008 194.744 117.664 193.336 125.728 190.264ZM101.664 169.272C85.024 169.272 76.32 172.984 76.32 180.28C76.32 181.56 76.576 182.84 77.216 183.992L103.072 182.2C120.48 180.92 125.216 179.256 125.216 175.544C125.216 171.448 116.512 169.272 101.664 169.272Z" fill="#0A0A0A"/>
<path d="M176.261 154.424V184.12C176.261 190.648 180.741 192.952 189.701 192.952C196.101 192.952 201.989 192.312 210.053 189.496L214.149 206.904C208.261 210.36 198.405 212.024 191.749 212.024C181.765 212.024 175.237 206.008 175.237 194.616V154.424C175.237 147 174.853 133.816 174.469 125.496H177.029C176.645 133.688 176.261 147 176.261 154.424Z" fill="#0A0A0A"/>
<path d="M279.235 195.384C281.411 195.384 284.099 195 285.763 193.464V199.224C285.763 208.312 282.691 211.64 278.723 211.64C272.451 211.64 270.019 205.24 270.019 196.664V192.184C264.771 207.672 255.299 212.024 243.651 212.024C231.875 212.024 222.915 205.368 222.915 193.976V192.184C222.915 183.352 227.395 182.456 242.243 181.176L270.019 178.616V176.184C270.019 171.192 260.803 169.272 250.435 169.272C241.347 169.272 233.411 171.192 228.163 173.624L223.299 158.648C229.187 154.936 237.635 152.376 246.595 152.376C259.779 152.376 271.043 158.136 271.043 168.12V185.144C271.043 191.032 273.731 195.384 279.235 195.384ZM244.931 195.128C257.731 195.128 267.075 192.312 270.019 186.552V179.768L242.243 182.328C228.547 183.608 225.603 185.144 225.603 188.856C225.603 194.104 234.307 195.128 244.931 195.128Z" fill="#0A0A0A"/>
<path d="M23.848 298.936C9.38404 298.936 0.936039 301.496 0.936039 309.176C0.936039 315.96 9.00004 321.208 26.28 321.208C35.88 321.208 44.072 319.8 51.752 316.984L56.36 334.392C49.448 337.72 40.616 340.024 29.864 340.024C10.024 340.024 0.0400391 329.656 0.0400391 312.632V309.432C0.0400391 290.232 9.76804 280.376 28.456 280.376C37.8 280.376 47.784 282.936 55.72 286.648L51.368 304.056C42.408 300.856 34.728 298.936 23.848 298.936Z" fill="#0A0A0A"/>
<path d="M94.381 280.376C101.805 280.376 109.869 282.68 114.605 286.264L110.509 302.648C104.749 300.088 97.453 298.68 91.181 298.68C84.397 298.68 76.333 300.728 73.645 304.824V316.472C73.645 323.896 74.029 330.68 74.413 339H71.853C72.237 330.808 72.621 323.896 72.621 316.472V303.928C72.621 296.504 72.365 289.72 71.981 281.4H74.157L73.773 291.128C77.101 285.368 85.165 280.376 94.381 280.376Z" fill="#0A0A0A"/>
<path d="M159.91 257.592L161.062 257.976L159.142 273.72H139.558V272.44L159.91 257.592ZM173.478 318.264L178.342 333.496C172.326 337.208 161.062 340.024 152.102 340.024C133.542 340.024 122.79 329.4 122.79 310.968V307.768C122.79 289.848 132.518 280.376 150.822 280.376C165.926 280.376 175.654 287.416 175.654 298.296V300.088C175.654 308.28 172.326 309.816 150.822 311.352L125.606 313.144C129.318 318.776 139.43 322.744 151.334 322.744C158.758 322.744 165.414 321.336 173.478 318.264ZM149.414 297.272C132.774 297.272 124.07 300.984 124.07 308.28C124.07 309.56 124.326 310.84 124.966 311.992L150.822 310.2C168.23 308.92 172.966 307.256 172.966 303.544C172.966 299.448 164.262 297.272 149.414 297.272Z" fill="#0A0A0A"/>
<path d="M248.11 323.384C250.286 323.384 252.974 323 254.638 321.464V327.224C254.638 336.312 251.566 339.64 247.598 339.64C241.326 339.64 238.894 333.24 238.894 324.664V320.184C233.646 335.672 224.174 340.024 212.526 340.024C200.75 340.024 191.79 333.368 191.79 321.976V320.184C191.79 311.352 196.27 310.456 211.118 309.176L238.894 306.616V304.184C238.894 299.192 229.678 297.272 219.31 297.272C210.222 297.272 202.286 299.192 197.038 301.624L192.174 286.648C198.062 282.936 206.51 280.376 215.47 280.376C228.654 280.376 239.918 286.136 239.918 296.12V313.144C239.918 319.032 242.606 323.384 248.11 323.384ZM213.806 323.128C226.606 323.128 235.95 320.312 238.894 314.552V307.768L211.118 310.328C197.422 311.608 194.478 313.144 194.478 316.856C194.478 322.104 203.182 323.128 213.806 323.128Z" fill="#0A0A0A"/>
<path d="M305.411 316.984L309.891 334.392C301.699 338.36 294.403 340.024 286.723 340.024C277.635 340.024 270.595 334.904 270.595 322.488V299.32H259.075V281.4H270.339L269.955 269.88H272.387C272.131 273.976 272.003 277.688 271.875 281.4H306.179V299.32H271.619V311.608C271.619 318.264 274.179 320.952 286.723 320.952C293.635 320.952 298.115 319.672 305.411 316.984Z" fill="#0A0A0A"/>
<path d="M316.947 265.272V263.736C316.947 262.072 317.587 260.152 318.611 259.128C320.019 257.592 321.939 256.952 324.499 256.952C327.059 256.952 328.979 257.592 330.387 259.128C331.411 260.152 332.051 262.072 332.051 263.736V265.272C332.051 266.936 331.411 268.856 330.387 269.88C328.979 271.416 327.059 272.056 324.499 272.056C321.939 272.056 320.019 271.416 318.611 269.88C317.587 268.856 316.947 266.936 316.947 265.272ZM325.011 303.8V312.12C325.011 318.648 329.491 320.952 338.451 320.952C344.851 320.952 350.739 320.312 358.803 317.496L362.899 334.904C357.011 338.36 347.155 340.024 340.499 340.024C330.515 340.024 323.987 334.008 323.987 322.616V303.8C323.987 297.784 323.859 292.408 323.219 281.4H325.779C325.267 292.408 325.011 297.784 325.011 303.8Z" fill="#0A0A0A"/>
<path d="M382.221 324.92L407.949 280.888L423.565 289.72L394.637 339H387.469L371.213 303.032C367.117 294.072 365.069 288.952 361.485 281.784L363.917 280.888C366.093 288.056 368.269 293.944 372.109 302.392L382.221 324.92Z" fill="#0A0A0A"/>
<path d="M426.697 265.272V263.736C426.697 262.072 427.337 260.152 428.361 259.128C429.769 257.592 431.689 256.952 434.249 256.952C436.809 256.952 438.729 257.592 440.137 259.128C441.161 260.152 441.801 262.072 441.801 263.736V265.272C441.801 266.936 441.161 268.856 440.137 269.88C438.729 271.416 436.809 272.056 434.249 272.056C431.689 272.056 429.769 271.416 428.361 269.88C427.337 268.856 426.697 266.936 426.697 265.272ZM434.761 303.8V312.12C434.761 318.648 439.241 320.952 448.201 320.952C454.601 320.952 460.489 320.312 468.553 317.496L472.649 334.904C466.761 338.36 456.905 340.024 450.249 340.024C440.265 340.024 433.737 334.008 433.737 322.616V303.8C433.737 297.784 433.609 292.408 432.969 281.4H435.529C435.017 292.408 434.761 297.784 434.761 303.8Z" fill="#0A0A0A"/>
<path d="M522.161 316.984L526.641 334.392C518.449 338.36 511.153 340.024 503.473 340.024C494.385 340.024 487.345 334.904 487.345 322.488V299.32H475.825V281.4H487.089L486.705 269.88H489.137C488.881 273.976 488.753 277.688 488.625 281.4H522.929V299.32H488.369V311.608C488.369 318.264 490.929 320.952 503.473 320.952C510.385 320.952 514.865 319.672 522.161 316.984Z" fill="#0A0A0A"/>
<path d="M574.785 257.592L575.937 257.976L574.017 273.72H554.433V272.44L574.785 257.592ZM588.353 318.264L593.217 333.496C587.201 337.208 575.937 340.024 566.977 340.024C548.417 340.024 537.665 329.4 537.665 310.968V307.768C537.665 289.848 547.393 280.376 565.697 280.376C580.801 280.376 590.529 287.416 590.529 298.296V300.088C590.529 308.28 587.201 309.816 565.697 311.352L540.481 313.144C544.193 318.776 554.305 322.744 566.209 322.744C573.633 322.744 580.289 321.336 588.353 318.264ZM564.289 297.272C547.649 297.272 538.945 300.984 538.945 308.28C538.945 309.56 539.201 310.84 539.841 311.992L565.697 310.2C583.105 308.92 587.841 307.256 587.841 303.544C587.841 299.448 579.137 297.272 564.289 297.272Z" fill="#0A0A0A"/>
</svg>
